<svg width="40" height="40" viewBox="0 0 40 40" fill="none" xmlns="http://www.w3.org/2000/svg">
<g id="Icon/Outline/briefcase">
<path id="Mask" fill-rule="evenodd" clip-rule="evenodd" d="M33.3333 30C33.3333 30.9183 32.585 31.6667 31.6666 31.6667H28.3333V15H31.6666C32.585 15 33.3333 15.7483 33.3333 16.6667V30ZM6.66665 30V16.6667C6.66665 15.7483 7.41498 15 8.33331 15H11.6666V31.6667H8.33331C7.41498 31.6667 6.66665 30.9183 6.66665 30ZM16.6666 9.16667C16.6666 8.70667 17.04 8.33333 17.5 8.33333H22.5C22.96 8.33333 23.3333 8.70667 23.3333 9.16667V11.6667H16.6666V9.16667ZM15 31.6667H25V15H15V31.6667ZM31.6666 11.6667H26.6666V9.16667C26.6666 6.87 24.7966 5 22.5 5H17.5C15.2033 5 13.3333 6.87 13.3333 9.16667V11.6667H8.33331C5.57665 11.6667 3.33331 13.91 3.33331 16.6667V30C3.33331 32.7567 5.57665 35 8.33331 35H31.6666C34.4233 35 36.6666 32.7567 36.6666 30V16.6667C36.6666 13.91 34.4233 11.6667 31.6666 11.6667Z" fill="white"/>
<mask id="mask0_201_1193" style="mask-type:alpha" maskUnits="userSpaceOnUse" x="3" y="5" width="34" height="30">
<path id="Mask_2" fill-rule="evenodd" clip-rule="evenodd" d="M33.3333 30C33.3333 30.9183 32.585 31.6667 31.6666 31.6667H28.3333V15H31.6666C32.585 15 33.3333 15.7483 33.3333 16.6667V30ZM6.66665 30V16.6667C6.66665 15.7483 7.41498 15 8.33331 15H11.6666V31.6667H8.33331C7.41498 31.6667 6.66665 30.9183 6.66665 30ZM16.6666 9.16667C16.6666 8.70667 17.04 8.33333 17.5 8.33333H22.5C22.96 8.33333 23.3333 8.70667 23.3333 9.16667V11.6667H16.6666V9.16667ZM15 31.6667H25V15H15V31.6667ZM31.6666 11.6667H26.6666V9.16667C26.6666 6.87 24.7966 5 22.5 5H17.5C15.2033 5 13.3333 6.87 13.3333 9.16667V11.6667H8.33331C5.57665 11.6667 3.33331 13.91 3.33331 16.6667V30C3.33331 32.7567 5.57665 35 8.33331 35H31.6666C34.4233 35 36.6666 32.7567 36.6666 30V16.6667C36.6666 13.91 34.4233 11.6667 31.6666 11.6667Z" fill="white"/>
</mask>
<g mask="url(#mask0_201_1193)">
<g id="&#240;&#159;&#142;&#168; Color">
<rect id="Base" width="40" height="40" fill="white"/>
</g>
</g>
</g>
</svg>
