<svg width="16" height="16" viewBox="0 0 16 16" fill="none" xmlns="http://www.w3.org/2000/svg">
<g clip-path="url(#clip0_193_1424)">
<path d="M16 3.69141H0V4.92202H16V3.69141Z" fill="#F5F5F5"/>
<path d="M15.1641 1.23047H0.835094C0.531719 1.58634 0.29825 2.00363 0.15625 2.46125H15.8429C15.7009 2.00363 15.4675 1.58634 15.1641 1.23047Z" fill="#F5F5F5"/>
<path d="M16 6.1543H0V7.38492H16V6.1543Z" fill="#F5F5F5"/>
<path d="M16 8.61523H0V9.84586H16V8.61523Z" fill="#F5F5F5"/>
<path d="M16 11.0762H0V12.3068H16V11.0762Z" fill="#F5F5F5"/>
<path d="M15.8429 13.5391H0.15625C0.298219 13.9967 0.531719 14.4139 0.835094 14.7698H15.1641C15.4675 14.4139 15.7009 13.9967 15.8429 13.5391Z" fill="#F5F5F5"/>
<path d="M12.5004 0H3.50044C2.43331 0 1.47791 0.477719 0.835938 1.23078H15.1649C14.523 0.477719 13.5676 0 12.5004 0Z" fill="#FF4B55"/>
<path d="M16 4.92383H0V6.15445H16V4.92383Z" fill="#FF4B55"/>
<path d="M16 3.49938C16 3.13778 15.9452 2.78903 15.8433 2.46094H0.156656C0.0548438 2.78903 0 3.13778 0 3.49938V3.69169H16V3.49938Z" fill="#FF4B55"/>
<path d="M16 7.38477H0V8.61539H16V7.38477Z" fill="#FF4B55"/>
<path d="M16 12.5009V12.3086H0V12.5009C0 12.8625 0.0548438 13.2112 0.156656 13.5394H15.8433C15.9452 13.2112 16 12.8625 16 12.5009Z" fill="#FF4B55"/>
<path d="M15.1649 14.7695H0.835938C1.47791 15.5226 2.43331 16.0003 3.50044 16.0003H12.5004C13.5676 16.0003 14.523 15.5226 15.1649 14.7695Z" fill="#FF4B55"/>
<path d="M16 9.8457H0V11.0763H16V9.8457Z" fill="#FF4B55"/>
<path d="M8.61537 0H3.5C1.567 0 0 1.567 0 3.5V8.61537H8.61537V0Z" fill="#41479B"/>
<path d="M0.929134 1.34608C0.920946 1.37198 0.950415 1.39342 0.97254 1.37761L1.14326 1.25561L1.31398 1.37761C1.33607 1.39342 1.36557 1.37198 1.35738 1.34608L1.2941 1.14601L1.46291 1.02136C1.48476 1.0052 1.47351 0.970546 1.44632 0.970328L1.23651 0.968703L1.2007 0.861328C1.11076 0.939734 1.02498 1.02273 0.943509 1.10983L0.992477 1.14601L0.929134 1.34608Z" fill="#F5F5F5"/>
<path d="M1.17056 2.42949L1.23694 2.62856L1.44675 2.63018C1.4739 2.6304 1.48519 2.66506 1.46334 2.68121L1.29453 2.80587L1.35781 3.00593C1.366 3.03184 1.33653 3.05324 1.3144 3.03746L1.14369 2.91543L0.972966 3.03746C0.950872 3.05328 0.921372 3.03184 0.92956 3.00593L0.992841 2.80587L0.824028 2.68121C0.802184 2.66509 0.813434 2.6304 0.840591 2.63018L1.0504 2.62856L1.11678 2.42949C1.1255 2.40371 1.16197 2.40371 1.17056 2.42949Z" fill="#F5F5F5"/>
<path d="M1.17056 4.27129L1.23694 4.47035L1.44675 4.47197C1.4739 4.47219 1.48519 4.50685 1.46334 4.523L1.29453 4.64766L1.35781 4.84772C1.366 4.87363 1.33653 4.89503 1.3144 4.87925L1.14369 4.75725L0.972966 4.87925C0.950872 4.89503 0.921372 4.87363 0.92956 4.84772L0.992841 4.64766L0.824028 4.523C0.802184 4.50688 0.813434 4.47219 0.840591 4.47197L1.0504 4.47035L1.11678 4.27129C1.1255 4.24551 1.16197 4.24551 1.17056 4.27129Z" fill="#F5F5F5"/>
<path d="M1.17056 5.9627L1.23694 6.16176L1.44675 6.16338C1.4739 6.1636 1.48519 6.19826 1.46334 6.21441L1.29453 6.33907L1.35781 6.53913C1.366 6.56503 1.33653 6.58644 1.3144 6.57066L1.14369 6.44863L0.972966 6.57066C0.950872 6.58644 0.921372 6.56503 0.92956 6.53913L0.992841 6.33907L0.824028 6.21441C0.802184 6.19829 0.813434 6.1636 0.840591 6.16338L1.0504 6.16176L1.11678 5.9627C1.1255 5.93691 1.16197 5.93691 1.17056 5.9627Z" fill="#F5F5F5"/>
<path d="M1.17056 7.50371L1.23694 7.70277L1.44675 7.7044C1.4739 7.70461 1.48519 7.73927 1.46334 7.75543L1.29453 7.88008L1.35781 8.08014C1.366 8.10605 1.33653 8.12745 1.3144 8.11167L1.14369 7.98967L0.972966 8.11167C0.950872 8.12745 0.921372 8.10605 0.92956 8.08014L0.992841 7.88008L0.824028 7.75543C0.802184 7.7393 0.813434 7.70461 0.840591 7.7044L1.0504 7.70277L1.11678 7.50371C1.1255 7.47793 1.16197 7.47793 1.17056 7.50371Z" fill="#F5F5F5"/>
<path d="M1.97906 1.55645L2.04543 1.75551L2.25524 1.75713C2.2824 1.75735 2.29368 1.79201 2.27184 1.80813L2.10303 1.93279L2.16631 2.13285C2.17449 2.15876 2.14503 2.1802 2.1229 2.16438L1.95224 2.04235L1.78153 2.16438C1.75943 2.1802 1.72993 2.15876 1.73812 2.13285L1.8014 1.93279L1.63262 1.80813C1.61078 1.79201 1.62203 1.75732 1.64918 1.75713L1.859 1.75551L1.92537 1.55645C1.93399 1.53066 1.97046 1.53066 1.97906 1.55645Z" fill="#F5F5F5"/>
<path d="M1.97912 3.39824L2.04549 3.59731L2.25531 3.59893C2.28246 3.59915 2.29374 3.63381 2.2719 3.64996L2.10309 3.77462L2.16637 3.97468C2.17456 4.00059 2.14509 4.02203 2.12296 4.00621L1.95224 3.88418L1.78153 4.00621C1.75943 4.02203 1.72993 4.00059 1.73812 3.97468L1.8014 3.77462L1.63262 3.64996C1.61078 3.63384 1.62203 3.59915 1.64918 3.59893L1.859 3.59731L1.92537 3.39824C1.93406 3.37246 1.97053 3.37246 1.97912 3.39824Z" fill="#F5F5F5"/>
<path d="M1.97912 5.14627L2.04549 5.34533L2.25531 5.34695C2.28246 5.34717 2.29374 5.38183 2.2719 5.39799L2.10309 5.52264L2.16637 5.72271C2.17456 5.74861 2.14509 5.77002 2.12296 5.75424L1.95224 5.63221L1.78153 5.75424C1.75943 5.77005 1.72993 5.74861 1.73812 5.72271L1.8014 5.52264L1.63262 5.39799C1.61078 5.38186 1.62203 5.34717 1.64918 5.34695L1.859 5.34533L1.92537 5.14627C1.93406 5.12052 1.97053 5.12052 1.97912 5.14627Z" fill="#F5F5F5"/>
<path d="M1.97912 6.71855L2.04549 6.91762L2.25531 6.91924C2.28246 6.91946 2.29374 6.95412 2.2719 6.97027L2.10309 7.09493L2.16637 7.29499C2.17456 7.32089 2.14509 7.34233 2.12296 7.32652L1.95224 7.20452L1.78153 7.32652C1.75943 7.34233 1.72993 7.32089 1.73812 7.29499L1.8014 7.09493L1.63262 6.97027C1.61078 6.95415 1.62203 6.91946 1.64918 6.91924L1.859 6.91762L1.92537 6.71855C1.93406 6.69277 1.97053 6.69277 1.97912 6.71855Z" fill="#F5F5F5"/>
<path d="M2.78674 0.769313L2.85311 0.968375L3.06292 0.97C3.09008 0.970219 3.10136 1.00488 3.07952 1.021L2.91071 1.14566L2.97399 1.34572C2.98217 1.37163 2.95271 1.39303 2.93058 1.37725L2.75986 1.25522L2.58914 1.37725C2.56705 1.39306 2.53755 1.37163 2.54574 1.34572L2.60902 1.14566L2.44024 1.021C2.4184 1.00488 2.42965 0.970188 2.4568 0.97L2.66661 0.968375L2.73299 0.769313C2.74168 0.743563 2.77814 0.743563 2.78674 0.769313Z" fill="#F5F5F5"/>
<path d="M2.78674 2.42949L2.85311 2.62856L3.06292 2.63018C3.09008 2.6304 3.10136 2.66506 3.07952 2.68121L2.91071 2.80587L2.97399 3.00593C2.98217 3.03184 2.95271 3.05324 2.93058 3.03746L2.75986 2.91543L2.58914 3.03746C2.56705 3.05328 2.53755 3.03184 2.54574 3.00593L2.60902 2.80587L2.44024 2.68121C2.4184 2.66509 2.42965 2.6304 2.4568 2.63018L2.66661 2.62856L2.73299 2.42949C2.74168 2.40371 2.77814 2.40371 2.78674 2.42949Z" fill="#F5F5F5"/>
<path d="M2.78674 4.27129L2.85311 4.47035L3.06292 4.47197C3.09008 4.47219 3.10136 4.50685 3.07952 4.523L2.91071 4.64766L2.97399 4.84772C2.98217 4.87363 2.95271 4.89503 2.93058 4.87925L2.75986 4.75725L2.58914 4.87925C2.56705 4.89503 2.53755 4.87363 2.54574 4.84772L2.60902 4.64766L2.44024 4.523C2.4184 4.50688 2.42965 4.47219 2.4568 4.47197L2.66661 4.47035L2.73299 4.27129C2.74168 4.24551 2.77814 4.24551 2.78674 4.27129Z" fill="#F5F5F5"/>
<path d="M2.78674 5.9627L2.85311 6.16176L3.06292 6.16338C3.09008 6.1636 3.10136 6.19826 3.07952 6.21441L2.91071 6.33907L2.97399 6.53913C2.98217 6.56503 2.95271 6.58644 2.93058 6.57066L2.75986 6.44863L2.58914 6.57066C2.56705 6.58644 2.53755 6.56503 2.54574 6.53913L2.60902 6.33907L2.44024 6.21441C2.4184 6.19829 2.42965 6.1636 2.4568 6.16338L2.66661 6.16176L2.73299 5.9627C2.74168 5.93691 2.77814 5.93691 2.78674 5.9627Z" fill="#F5F5F5"/>
<path d="M2.78674 7.50371L2.85311 7.70277L3.06292 7.7044C3.09008 7.70461 3.10136 7.73927 3.07952 7.75543L2.91071 7.88008L2.97399 8.08014C2.98217 8.10605 2.95271 8.12745 2.93058 8.11167L2.75986 7.98967L2.58914 8.11167C2.56705 8.12745 2.53755 8.10605 2.54574 8.08014L2.60902 7.88008L2.44024 7.75543C2.4184 7.7393 2.42965 7.70461 2.4568 7.7044L2.66661 7.70277L2.73299 7.50371C2.74168 7.47793 2.77814 7.47793 2.78674 7.50371Z" fill="#F5F5F5"/>
<path d="M3.59536 1.55645L3.66174 1.75551L3.87155 1.75713C3.89871 1.75735 3.90999 1.79201 3.88811 1.80813L3.71933 1.93279L3.78261 2.13285C3.7908 2.15876 3.76133 2.1802 3.73921 2.16438L3.56849 2.04235L3.39777 2.16438C3.37568 2.1802 3.34618 2.15876 3.35436 2.13285L3.41764 1.93279L3.24883 1.80813C3.22699 1.79201 3.23824 1.75732 3.26542 1.75713L3.47524 1.75551L3.54161 1.55645C3.55033 1.53066 3.58677 1.53066 3.59536 1.55645Z" fill="#F5F5F5"/>
<path d="M3.59536 3.39824L3.66174 3.59731L3.87155 3.59893C3.89871 3.59915 3.90999 3.63381 3.88811 3.64996L3.71933 3.77462L3.78261 3.97468C3.7908 4.00059 3.76133 4.02203 3.73921 4.00621L3.56849 3.88418L3.39777 4.00621C3.37568 4.02203 3.34618 4.00059 3.35436 3.97468L3.41764 3.77462L3.24883 3.64996C3.22699 3.63384 3.23824 3.59915 3.26542 3.59893L3.47524 3.59731L3.54161 3.39824C3.55033 3.37246 3.58677 3.37246 3.59536 3.39824Z" fill="#F5F5F5"/>
<path d="M3.59536 5.14627L3.66174 5.34533L3.87155 5.34695C3.89871 5.34717 3.90999 5.38183 3.88811 5.39799L3.71933 5.52264L3.78261 5.72271C3.7908 5.74861 3.76133 5.77002 3.73921 5.75424L3.56849 5.63221L3.39777 5.75424C3.37568 5.77005 3.34618 5.74861 3.35436 5.72271L3.41764 5.52264L3.24883 5.39799C3.22699 5.38186 3.23824 5.34717 3.26542 5.34695L3.47524 5.34533L3.54161 5.14627C3.55033 5.12052 3.58677 5.12052 3.59536 5.14627Z" fill="#F5F5F5"/>
<path d="M3.59536 6.71855L3.66174 6.91762L3.87155 6.91924C3.89871 6.91946 3.90999 6.95412 3.88811 6.97027L3.71933 7.09493L3.78261 7.29499C3.7908 7.32089 3.76133 7.34233 3.73921 7.32652L3.56849 7.20452L3.39777 7.32652C3.37568 7.34233 3.34618 7.32089 3.35436 7.29499L3.41764 7.09493L3.24883 6.97027C3.22699 6.95415 3.23824 6.91946 3.26542 6.91924L3.47524 6.91762L3.54161 6.71855C3.55033 6.69277 3.58677 6.69277 3.59536 6.71855Z" fill="#F5F5F5"/>
<path d="M4.40295 0.769313L4.46933 0.968375L4.67914 0.97C4.7063 0.970219 4.71758 1.00488 4.6957 1.021L4.52692 1.14566L4.5902 1.34572C4.59839 1.37163 4.56892 1.39303 4.5468 1.37725L4.37608 1.25522L4.20536 1.37725C4.18326 1.39306 4.15376 1.37163 4.16195 1.34572L4.22523 1.14566L4.05645 1.021C4.0346 1.00488 4.04585 0.970188 4.07304 0.97L4.28286 0.968375L4.34923 0.769313C4.35792 0.743563 4.39436 0.743563 4.40295 0.769313Z" fill="#F5F5F5"/>
<path d="M4.40291 2.4295L4.46929 2.62856L4.6791 2.63019C4.70626 2.6304 4.71754 2.66506 4.69566 2.68122L4.52688 2.80587L4.59019 3.00591C4.59838 3.03181 4.56891 3.05322 4.54679 3.03744L4.37607 2.91541L4.20535 3.03744C4.18326 3.05325 4.15376 3.03181 4.16195 3.00591L4.22523 2.80584L4.05645 2.68119C4.0346 2.66506 4.04585 2.63037 4.07304 2.63015L4.28285 2.62853L4.34923 2.42946C4.35788 2.40371 4.39432 2.40371 4.40291 2.4295Z" fill="#F5F5F5"/>
<path d="M4.40295 4.27129L4.46933 4.47035L4.67914 4.47197C4.7063 4.47219 4.71758 4.50685 4.6957 4.523L4.52692 4.64766L4.5902 4.84772C4.59839 4.87363 4.56892 4.89503 4.5468 4.87925L4.37608 4.75725L4.20536 4.87925C4.18326 4.89503 4.15376 4.87363 4.16195 4.84772L4.22523 4.64766L4.05645 4.523C4.0346 4.50688 4.04585 4.47219 4.07304 4.47197L4.28286 4.47035L4.34923 4.27129C4.35792 4.24551 4.39436 4.24551 4.40295 4.27129Z" fill="#F5F5F5"/>
<path d="M4.40295 5.9627L4.46933 6.16176L4.67914 6.16338C4.7063 6.1636 4.71758 6.19826 4.6957 6.21441L4.52692 6.33907L4.5902 6.53913C4.59839 6.56503 4.56892 6.58644 4.5468 6.57066L4.37608 6.44863L4.20536 6.57066C4.18326 6.58644 4.15376 6.56503 4.16195 6.53913L4.22523 6.33907L4.05645 6.21441C4.0346 6.19829 4.04585 6.1636 4.07304 6.16338L4.28286 6.16176L4.34923 5.9627C4.35792 5.93691 4.39436 5.93691 4.40295 5.9627Z" fill="#F5F5F5"/>
<path d="M4.40295 7.50371L4.46933 7.70277L4.67914 7.7044C4.7063 7.70461 4.71758 7.73927 4.6957 7.75543L4.52692 7.88008L4.5902 8.08014C4.59839 8.10605 4.56892 8.12745 4.5468 8.11167L4.37608 7.98967L4.20536 8.11167C4.18326 8.12745 4.15376 8.10605 4.16195 8.08014L4.22523 7.88008L4.05645 7.75543C4.0346 7.7393 4.04585 7.70461 4.07304 7.7044L4.28286 7.70277L4.34923 7.50371C4.35792 7.47793 4.39436 7.47793 4.40295 7.50371Z" fill="#F5F5F5"/>
<path d="M5.21157 1.55645L5.27795 1.75551L5.48776 1.75713C5.51491 1.75735 5.5262 1.79201 5.50432 1.80813L5.33551 1.93279L5.39879 2.13285C5.40698 2.15876 5.37748 2.1802 5.35538 2.16438L5.18467 2.04235L5.01395 2.16438C4.99186 2.1802 4.96236 2.15876 4.97054 2.13285L5.03382 1.93279L4.86504 1.80813C4.8432 1.79201 4.85445 1.75732 4.88161 1.75713L5.09142 1.75551L5.15779 1.55645C5.16654 1.53066 5.20298 1.53066 5.21157 1.55645Z" fill="#F5F5F5"/>
<path d="M5.21157 3.39824L5.27795 3.59731L5.48776 3.59893C5.51491 3.59915 5.5262 3.63381 5.50432 3.64996L5.33551 3.77462L5.39879 3.97468C5.40698 4.00059 5.37748 4.02203 5.35538 4.00621L5.18467 3.88418L5.01395 4.00621C4.99186 4.02203 4.96236 4.00059 4.97054 3.97468L5.03382 3.77462L4.86504 3.64996C4.8432 3.63384 4.85445 3.59915 4.88161 3.59893L5.09142 3.59731L5.15779 3.39824C5.16654 3.37246 5.20298 3.37246 5.21157 3.39824Z" fill="#F5F5F5"/>
<path d="M5.21157 5.14627L5.27795 5.34533L5.48776 5.34695C5.51491 5.34717 5.5262 5.38183 5.50432 5.39799L5.33551 5.52264L5.39879 5.72271C5.40698 5.74861 5.37748 5.77002 5.35538 5.75424L5.18467 5.63221L5.01395 5.75424C4.99186 5.77005 4.96236 5.74861 4.97054 5.72271L5.03382 5.52264L4.86504 5.39799C4.8432 5.38186 4.85445 5.34717 4.88161 5.34695L5.09142 5.34533L5.15779 5.14627C5.16654 5.12052 5.20298 5.12052 5.21157 5.14627Z" fill="#F5F5F5"/>
<path d="M5.21157 6.71855L5.27795 6.91762L5.48776 6.91924C5.51491 6.91946 5.5262 6.95412 5.50432 6.97027L5.33551 7.09493L5.39879 7.29499C5.40698 7.32089 5.37748 7.34233 5.35538 7.32652L5.18467 7.20452L5.01395 7.32652C4.99186 7.34233 4.96236 7.32089 4.97054 7.29499L5.03382 7.09493L4.86504 6.97027C4.8432 6.95415 4.85445 6.91946 4.88161 6.91924L5.09142 6.91762L5.15779 6.71855C5.16654 6.69277 5.20298 6.69277 5.21157 6.71855Z" fill="#F5F5F5"/>
<path d="M6.01922 0.769313L6.0856 0.968375L6.29541 0.97C6.32257 0.970219 6.33385 1.00488 6.31197 1.021L6.14316 1.14566L6.20644 1.34572C6.21463 1.37163 6.18513 1.39303 6.16304 1.37725L5.99232 1.25522L5.8216 1.37725C5.7995 1.39306 5.77 1.37163 5.77819 1.34572L5.84147 1.14566L5.67266 1.021C5.65082 1.00488 5.66207 0.970188 5.68925 0.97L5.89907 0.968375L5.96544 0.769313C5.97419 0.743563 6.01063 0.743563 6.01922 0.769313Z" fill="#F5F5F5"/>
<path d="M6.01922 2.42949L6.0856 2.62856L6.29541 2.63018C6.32257 2.6304 6.33385 2.66506 6.31197 2.68121L6.14316 2.80587L6.20644 3.00593C6.21463 3.03184 6.18513 3.05324 6.16304 3.03746L5.99232 2.91543L5.8216 3.03746C5.7995 3.05328 5.77 3.03184 5.77819 3.00593L5.84147 2.80587L5.67266 2.68121C5.65082 2.66509 5.66207 2.6304 5.68925 2.63018L5.89907 2.62856L5.96544 2.42949C5.97419 2.40371 6.01063 2.40371 6.01922 2.42949Z" fill="#F5F5F5"/>
<path d="M6.01922 4.27129L6.0856 4.47035L6.29541 4.47197C6.32257 4.47219 6.33385 4.50685 6.31197 4.523L6.14316 4.64766L6.20644 4.84772C6.21463 4.87363 6.18513 4.89503 6.16304 4.87925L5.99232 4.75725L5.8216 4.87925C5.7995 4.89503 5.77 4.87363 5.77819 4.84772L5.84147 4.64766L5.67266 4.523C5.65082 4.50688 5.66207 4.47219 5.68925 4.47197L5.89907 4.47035L5.96544 4.27129C5.97419 4.24551 6.01063 4.24551 6.01922 4.27129Z" fill="#F5F5F5"/>
<path d="M6.01922 5.9627L6.0856 6.16176L6.29541 6.16338C6.32257 6.1636 6.33385 6.19826 6.31197 6.21441L6.14316 6.33907L6.20644 6.53913C6.21463 6.56503 6.18513 6.58644 6.16304 6.57066L5.99232 6.44863L5.8216 6.57066C5.7995 6.58644 5.77 6.56503 5.77819 6.53913L5.84147 6.33907L5.67266 6.21441C5.65082 6.19829 5.66207 6.1636 5.68925 6.16338L5.89907 6.16176L5.96544 5.9627C5.97419 5.93691 6.01063 5.93691 6.01922 5.9627Z" fill="#F5F5F5"/>
<path d="M6.01922 7.50371L6.0856 7.70277L6.29541 7.7044C6.32257 7.70461 6.33385 7.73927 6.31197 7.75543L6.14316 7.88008L6.20644 8.08014C6.21463 8.10605 6.18513 8.12745 6.16304 8.11167L5.99232 7.98967L5.8216 8.11167C5.7995 8.12745 5.77 8.10605 5.77819 8.08014L5.84147 7.88008L5.67266 7.75543C5.65082 7.7393 5.66207 7.70461 5.68925 7.7044L5.89907 7.70277L5.96544 7.50371C5.97419 7.47793 6.01063 7.47793 6.01922 7.50371Z" fill="#F5F5F5"/>
<path d="M6.82778 1.55645L6.89416 1.75551L7.104 1.75713C7.13116 1.75735 7.14244 1.79201 7.12056 1.80813L6.95175 1.93279L7.01503 2.13285C7.02322 2.15876 6.99372 2.1802 6.97163 2.16438L6.80091 2.04235L6.63019 2.16438C6.6081 2.1802 6.5786 2.15876 6.58679 2.13285L6.65007 1.93279L6.48125 1.80813C6.45941 1.79201 6.47066 1.75732 6.49782 1.75713L6.70766 1.75551L6.77403 1.55645C6.78275 1.53066 6.81919 1.53066 6.82778 1.55645Z" fill="#F5F5F5"/>
<path d="M6.82778 3.39824L6.89416 3.59731L7.104 3.59893C7.13116 3.59915 7.14244 3.63381 7.12056 3.64996L6.95175 3.77462L7.01503 3.97468C7.02322 4.00059 6.99372 4.02203 6.97163 4.00621L6.80091 3.88418L6.63019 4.00621C6.6081 4.02203 6.5786 4.00059 6.58679 3.97468L6.65007 3.77462L6.48125 3.64996C6.45941 3.63384 6.47066 3.59915 6.49782 3.59893L6.70766 3.59731L6.77403 3.39824C6.78275 3.37246 6.81919 3.37246 6.82778 3.39824Z" fill="#F5F5F5"/>
<path d="M6.82778 5.14627L6.89416 5.34533L7.104 5.34695C7.13116 5.34717 7.14244 5.38183 7.12056 5.39799L6.95175 5.52264L7.01503 5.72271C7.02322 5.74861 6.99372 5.77002 6.97163 5.75424L6.80091 5.63221L6.63019 5.75424C6.6081 5.77005 6.5786 5.74861 6.58679 5.72271L6.65007 5.52264L6.48125 5.39799C6.45941 5.38186 6.47066 5.34717 6.49782 5.34695L6.70766 5.34533L6.77403 5.14627C6.78275 5.12052 6.81919 5.12052 6.82778 5.14627Z" fill="#F5F5F5"/>
<path d="M6.82778 6.71855L6.89416 6.91762L7.104 6.91924C7.13116 6.91946 7.14244 6.95412 7.12056 6.97027L6.95175 7.09493L7.01503 7.29499C7.02322 7.32089 6.99372 7.34233 6.97163 7.32652L6.80091 7.20452L6.63019 7.32652C6.6081 7.34233 6.5786 7.32089 6.58679 7.29499L6.65007 7.09493L6.48125 6.97027C6.45941 6.95415 6.47066 6.91946 6.49782 6.91924L6.70766 6.91762L6.77403 6.71855C6.78275 6.69277 6.81919 6.69277 6.82778 6.71855Z" fill="#F5F5F5"/>
<path d="M7.63638 0.769313L7.70276 0.968375L7.91257 0.97C7.93973 0.970219 7.95101 1.00488 7.92916 1.021L7.76035 1.14566L7.82363 1.34572C7.83182 1.37163 7.80232 1.39303 7.78023 1.37725L7.60951 1.25522L7.43879 1.37725C7.41669 1.39306 7.38719 1.37163 7.39538 1.34572L7.45866 1.14566L7.28985 1.021C7.268 1.00488 7.27925 0.970188 7.30641 0.97L7.51622 0.968375L7.5826 0.769313C7.59135 0.743563 7.62779 0.743563 7.63638 0.769313Z" fill="#F5F5F5"/>
<path d="M7.63638 2.42949L7.70276 2.62856L7.91257 2.63018C7.93973 2.6304 7.95101 2.66506 7.92916 2.68121L7.76035 2.80587L7.82363 3.00593C7.83182 3.03184 7.80232 3.05324 7.78023 3.03746L7.60951 2.91543L7.43879 3.03746C7.41669 3.05328 7.38719 3.03184 7.39538 3.00593L7.45866 2.80587L7.28985 2.68121C7.268 2.66509 7.27925 2.6304 7.30641 2.63018L7.51622 2.62856L7.5826 2.42949C7.59135 2.40371 7.62779 2.40371 7.63638 2.42949Z" fill="#F5F5F5"/>
<path d="M7.63638 4.27129L7.70276 4.47035L7.91257 4.47197C7.93973 4.47219 7.95101 4.50685 7.92916 4.523L7.76035 4.64766L7.82363 4.84772C7.83182 4.87363 7.80232 4.89503 7.78023 4.87925L7.60951 4.75725L7.43879 4.87925C7.41669 4.89503 7.38719 4.87363 7.39538 4.84772L7.45866 4.64766L7.28985 4.523C7.268 4.50688 7.27925 4.47219 7.30641 4.47197L7.51622 4.47035L7.5826 4.27129C7.59135 4.24551 7.62779 4.24551 7.63638 4.27129Z" fill="#F5F5F5"/>
<path d="M7.63638 5.9627L7.70276 6.16176L7.91257 6.16338C7.93973 6.1636 7.95101 6.19826 7.92916 6.21441L7.76035 6.33907L7.82363 6.53913C7.83182 6.56503 7.80232 6.58644 7.78023 6.57066L7.60951 6.44863L7.43879 6.57066C7.41669 6.58644 7.38719 6.56503 7.39538 6.53913L7.45866 6.33907L7.28985 6.21441C7.268 6.19829 7.27925 6.1636 7.30641 6.16338L7.51622 6.16176L7.5826 5.9627C7.59135 5.93691 7.62779 5.93691 7.63638 5.9627Z" fill="#F5F5F5"/>
<path d="M7.63638 7.50371L7.70276 7.70277L7.91257 7.7044C7.93973 7.70461 7.95101 7.73927 7.92916 7.75543L7.76035 7.88008L7.82363 8.08014C7.83182 8.10605 7.80232 8.12745 7.78023 8.11167L7.60951 7.98967L7.43879 8.11167C7.41669 8.12745 7.38719 8.10605 7.39538 8.08014L7.45866 7.88008L7.28985 7.75543C7.268 7.7393 7.27925 7.70461 7.30641 7.7044L7.51622 7.70277L7.5826 7.50371C7.59135 7.47793 7.62779 7.47793 7.63638 7.50371Z" fill="#F5F5F5"/>
</g>
<defs>
<clipPath id="clip0_193_1424">
<rect width="16" height="16" rx="4" fill="white"/>
</clipPath>
</defs>
</svg>
