<svg width="40" height="40" viewBox="0 0 40 40" fill="none" xmlns="http://www.w3.org/2000/svg">
<g id="Icon/Outline/layers">
<path id="Mask" fill-rule="evenodd" clip-rule="evenodd" d="M29.6005 25.9L20.0005 31.4117L10.4005 25.9L13.2238 24.6983L19.1705 28.1117C19.4272 28.26 19.7138 28.3333 20.0005 28.3333C20.2872 28.3333 20.5722 28.26 20.8305 28.1117L26.7772 24.6967L29.6005 25.9ZM19.1705 21.445C19.4272 21.5933 19.7138 21.6667 20.0005 21.6667C20.2872 21.6667 20.5722 21.5933 20.8305 21.445L26.7772 18.03L29.6005 19.2333L20.0005 24.745L10.4005 19.2333L13.2238 18.03L19.1705 21.445ZM20.0005 8.47832L29.6005 12.5667L20.0005 18.0783L10.4005 12.5667L20.0005 8.47832ZM34.9972 18.9133C34.9588 18.2817 34.5672 17.7267 33.9855 17.4783L30.3988 15.9517L34.1638 13.79C34.7122 13.4767 35.0338 12.8783 34.9972 12.2467C34.9588 11.6167 34.5672 11.06 33.9855 10.8117L20.6522 5.13332C20.2355 4.95499 19.7638 4.95499 19.3472 5.13332L6.01383 10.8117C5.43216 11.06 5.0405 11.6167 5.00383 12.2467C4.9655 12.8783 5.28883 13.4767 5.83716 13.79L9.6005 15.9517L6.01383 17.4783C5.43216 17.7267 5.0405 18.2817 5.00383 18.9133C4.9655 19.545 5.28883 20.1433 5.83716 20.4567L9.6005 22.6183L6.01383 24.145C5.43216 24.3933 5.0405 24.9483 5.00383 25.58C4.9655 26.2117 5.28883 26.81 5.83716 27.1233L19.1705 34.7783C19.4272 34.9267 19.7138 35 20.0005 35C20.2872 35 20.5722 34.9267 20.8305 34.7783L34.1638 27.1233C34.7122 26.81 35.0338 26.2117 34.9972 25.58C34.9588 24.95 34.5672 24.3933 33.9872 24.145L30.4005 22.6167L34.1638 20.4567C34.7122 20.1433 35.0338 19.545 34.9972 18.9133Z" fill="white"/>
<mask id="mask0_201_1163" style="mask-type:alpha" maskUnits="userSpaceOnUse" x="5" y="4" width="30" height="31">
<path id="Mask_2" fill-rule="evenodd" clip-rule="evenodd" d="M29.6005 25.9L20.0005 31.4117L10.4005 25.9L13.2238 24.6983L19.1705 28.1117C19.4272 28.26 19.7138 28.3333 20.0005 28.3333C20.2872 28.3333 20.5722 28.26 20.8305 28.1117L26.7772 24.6967L29.6005 25.9ZM19.1705 21.445C19.4272 21.5933 19.7138 21.6667 20.0005 21.6667C20.2872 21.6667 20.5722 21.5933 20.8305 21.445L26.7772 18.03L29.6005 19.2333L20.0005 24.745L10.4005 19.2333L13.2238 18.03L19.1705 21.445ZM20.0005 8.47832L29.6005 12.5667L20.0005 18.0783L10.4005 12.5667L20.0005 8.47832ZM34.9972 18.9133C34.9588 18.2817 34.5672 17.7267 33.9855 17.4783L30.3988 15.9517L34.1638 13.79C34.7122 13.4767 35.0338 12.8783 34.9972 12.2467C34.9588 11.6167 34.5672 11.06 33.9855 10.8117L20.6522 5.13332C20.2355 4.95499 19.7638 4.95499 19.3472 5.13332L6.01383 10.8117C5.43216 11.06 5.0405 11.6167 5.00383 12.2467C4.9655 12.8783 5.28883 13.4767 5.83716 13.79L9.6005 15.9517L6.01383 17.4783C5.43216 17.7267 5.0405 18.2817 5.00383 18.9133C4.9655 19.545 5.28883 20.1433 5.83716 20.4567L9.6005 22.6183L6.01383 24.145C5.43216 24.3933 5.0405 24.9483 5.00383 25.58C4.9655 26.2117 5.28883 26.81 5.83716 27.1233L19.1705 34.7783C19.4272 34.9267 19.7138 35 20.0005 35C20.2872 35 20.5722 34.9267 20.8305 34.7783L34.1638 27.1233C34.7122 26.81 35.0338 26.2117 34.9972 25.58C34.9588 24.95 34.5672 24.3933 33.9872 24.145L30.4005 22.6167L34.1638 20.4567C34.7122 20.1433 35.0338 19.545 34.9972 18.9133Z" fill="white"/>
</mask>
<g mask="url(#mask0_201_1163)">
<g id="&#240;&#159;&#142;&#168; Color">
<rect id="Base" width="40" height="40" fill="white"/>
</g>
</g>
</g>
</svg>
