<svg width="40" height="40" viewBox="0 0 40 40" fill="none" xmlns="http://www.w3.org/2000/svg">
<g id="Icon/Outline/monitor">
<path id="Mask" fill-rule="evenodd" clip-rule="evenodd" d="M33.3333 23.3333C33.3333 24.2517 32.5867 25 31.6667 25H20.145H19.855H8.33334C7.41334 25 6.66668 24.2517 6.66668 23.3333V10C6.66668 9.08167 7.41334 8.33333 8.33334 8.33333H31.6667C32.5867 8.33333 33.3333 9.08167 33.3333 10V23.3333ZM31.6667 5H8.33334C5.57668 5 3.33334 7.24333 3.33334 10V23.3333C3.33334 26.09 5.57668 28.3333 8.33334 28.3333H18.3333V31.6667H11.6667C10.75 31.6667 10 32.4167 10 33.3333C10 34.25 10.75 35 11.6667 35H28.3333C29.25 35 30 34.25 30 33.3333C30 32.4167 29.25 31.6667 28.3333 31.6667H21.6667V28.3333H31.6667C34.4233 28.3333 36.6667 26.09 36.6667 23.3333V10C36.6667 7.24333 34.4233 5 31.6667 5Z" fill="white"/>
<mask id="mask0_201_1133" style="mask-type:alpha" maskUnits="userSpaceOnUse" x="3" y="5" width="34" height="30">
<path id="Mask_2" fill-rule="evenodd" clip-rule="evenodd" d="M33.3333 23.3333C33.3333 24.2517 32.5867 25 31.6667 25H20.145H19.855H8.33334C7.41334 25 6.66668 24.2517 6.66668 23.3333V10C6.66668 9.08167 7.41334 8.33333 8.33334 8.33333H31.6667C32.5867 8.33333 33.3333 9.08167 33.3333 10V23.3333ZM31.6667 5H8.33334C5.57668 5 3.33334 7.24333 3.33334 10V23.3333C3.33334 26.09 5.57668 28.3333 8.33334 28.3333H18.3333V31.6667H11.6667C10.75 31.6667 10 32.4167 10 33.3333C10 34.25 10.75 35 11.6667 35H28.3333C29.25 35 30 34.25 30 33.3333C30 32.4167 29.25 31.6667 28.3333 31.6667H21.6667V28.3333H31.6667C34.4233 28.3333 36.6667 26.09 36.6667 23.3333V10C36.6667 7.24333 34.4233 5 31.6667 5Z" fill="white"/>
</mask>
<g mask="url(#mask0_201_1133)">
<g id="&#240;&#159;&#142;&#168; Color">
<rect id="Base" width="40" height="40" fill="white"/>
</g>
</g>
</g>
</svg>
